<svg xmlns="http://www.w3.org/2000/svg" viewBox="0 -960 960 960">
    <defs>
        <linearGradient id="icon-gradient" x1="0%" y1="0%" x2="100%" y2="100%">
            <stop offset="0%" style="stop-color:#1E5AA8"/>
            <stop offset="100%" style="stop-color:#00AFAE"/>
        </linearGradient>
    </defs>
    <path fill="url(#icon-gradient)" d="M 42.75,-69.65 V -143.04 H 112.95 Q 58.06,-216.41 29.03,-302.08 0,-387.75 0,-479.33 0,-570.9 29.03,-656.57 58.06,-742.24 112.95,-816.26 H 42.75 v -73.39 H 250.14 v 199.74 h -73.39 v -87.75 q -49.45,65.73 -76.41,141.19 -26.96,75.47 -26.96,157.14 0,81.68 26.96,157.14 26.96,75.46 76.41,141.19 v -87.75 h 73.39 V -69.65 Z M 633.98,-171.43 q -22.02,8.61 -45.95,7.66 -23.93,-0.96 -45.3,-11.49 l -276.31,-135.29 1.6,-13.4 q 9.57,-32.54 35.89,-53.12 26.32,-20.58 60.14,-21.21 l 70.83,-2.56 -109.12,-298.96 q -5.74,-15.96 1.91,-31.91 7.66,-15.95 23.61,-22.33 16.59,-5.74 32.54,1.91 15.95,7.66 22.33,23.61 l 146.45,402.34 -120.92,2.56 147.72,71.46 q 6.06,3.2 12.92,3.03 6.86,-0.16 13.56,-2.08 l 216.64,-79.45 q 31.27,-11.49 44.99,-40.52 13.72,-29.03 2.23,-60.3 l -64.76,-179 q -6.38,-15.96 1.27,-32.23 7.66,-16.27 24.25,-22.65 15.96,-5.74 31.75,1.91 15.79,7.66 22.18,23.6 l 65.09,179 q 23.29,64.46 -5.26,125.24 -28.56,60.78 -93.01,84.71 z m -69.88,-284.93 -61.58,-166.55 q -5.74,-16.59 1.91,-32.23 7.66,-15.63 23.6,-22.02 16.6,-6.37 32.23,1.6 15.63,7.97 22.02,23.93 l 60.94,167.19 z m 130.49,-47.22 -47.53,-130.82 q -6.38,-15.96 1.59,-32.23 7.98,-16.27 23.93,-22.65 15.96,-5.74 31.91,1.44 15.95,7.18 22.33,23.13 l 48.18,133.05 z m 13.73,94.44 z"/>
</svg>
